<svg width="16" height="16" viewBox="0 0 16 16" fill="none" xmlns="http://www.w3.org/2000/svg">
<path d="M11.6186 10.7702L14.1884 13.3394L13.3394 14.1884L10.7702 11.6186C9.81424 12.3849 8.6252 12.8017 7.4 12.8C4.4192 12.8 2 10.3808 2 7.4C2 4.4192 4.4192 2 7.4 2C10.3808 2 12.8 4.4192 12.8 7.4C12.8017 8.6252 12.3849 9.81424 11.6186 10.7702ZM10.415 10.325C11.1765 9.54193 11.6017 8.49226 11.6 7.4C11.6 5.0792 9.7202 3.2 7.4 3.2C5.0792 3.2 3.2 5.0792 3.2 7.4C3.2 9.7202 5.0792 11.6 7.4 11.6C8.49226 11.6017 9.54193 11.1765 10.325 10.415L10.415 10.325Z" fill="#31353F"/>
</svg>
